HIERARCHY
ROOT Hips
{
	OFFSET 0.000000 103.266502 0.000000
	CHANNELS 6 Xposition Yposition Zposition Xrotation Yrotation Zrotation 
	JOINT Spine
	{
		OFFSET -0.002400 12.777504 0.315300
		CHANNELS 3 Xrotation Yrotation Zrotation
		JOINT Spine1
		{
			OFFSET -0.002067 5.816869 0.032633
			CHANNELS 3 Xrotation Yrotation Zrotation
			JOINT Spine1_split
			{
				OFFSET -0.002067 5.816869 0.032633
				CHANNELS 3 Xrotation Yrotation Zrotation
				JOINT Spine2
				{
					OFFSET -0.002067 5.816869 0.032633
					CHANNELS 3 Xrotation Yrotation Zrotation
					JOINT Neck
					{
						OFFSET -0.003700 21.199493 -0.826900
						CHANNELS 3 Xrotation Yrotation Zrotation
						JOINT Head
						{
							OFFSET 0.000000 20.442200 4.834800
							CHANNELS 3 Xrotation Yrotation Zrotation
							JOINT HeadTop_End
							{
								OFFSET 0.000000 34.668396 4.968400
								CHANNELS 3 Xrotation Yrotation Zrotation
								End Site
								{
									OFFSET 0.000000 0.000000 0.000000
								}
							}
						}
					}
					JOINT LeftShoulder
					{
						OFFSET 3.288150 8.794197 -1.372250
						CHANNELS 3 Xrotation Yrotation Zrotation
						JOINT LeftShoulder_split
						{
							OFFSET 3.288150 8.794197 -1.372250
							CHANNELS 3 Xrotation Yrotation Zrotation
							JOINT LeftArm
							{
								OFFSET 11.953299 -2.279007 -0.146200
								CHANNELS 3 Xrotation Yrotation Zrotation
								JOINT LeftForeArm
								{
									OFFSET 18.448900 0.000000 0.000000
									CHANNELS 3 Xrotation Yrotation Zrotation
									JOINT LeftHand
									{
										OFFSET 29.527798 0.000000 0.000000
										CHANNELS 3 Xrotation Yrotation Zrotation
										JOINT LeftHandThumb1
										{
											OFFSET 10.739754 -2.369614 9.225399
											CHANNELS 3 Xrotation Yrotation Zrotation
											JOINT LeftHandThumb2
											{
												OFFSET 4.926170 -2.844131 2.844125
												CHANNELS 3 Xrotation Yrotation Zrotation
												JOINT LeftHandThumb3
												{
													OFFSET 4.614891 -2.664413 2.664409
													CHANNELS 3 Xrotation Yrotation Zrotation
													JOINT LeftHandThumb4
													{
														OFFSET 4.432465 -2.559082 2.559083
														CHANNELS 3 Xrotation Yrotation Zrotation
														End Site
														{
															OFFSET 0.000000 0.000000 0.000000
														}
													}
												}
											}
										}
										JOINT LeftHandIndex1
										{
											OFFSET 26.467674 0.187653 6.405298
											CHANNELS 3 Xrotation Yrotation Zrotation
											JOINT LeftHandIndex2
											{
												OFFSET 8.792900 0.000000 0.000000
												CHANNELS 3 Xrotation Yrotation Zrotation
												JOINT LeftHandIndex3
												{
													OFFSET 10.075203 0.000000 0.000000
													CHANNELS 3 Xrotation Yrotation Zrotation
													End Site
													{
														OFFSET 0.000000 0.000000 0.000000
													}
												}
											}
										}
										JOINT LeftHandMiddle1
										{
											OFFSET 25.764404 0.000000 0.000000
											CHANNELS 3 Xrotation Yrotation Zrotation
											JOINT LeftHandMiddle2
											{
												OFFSET 9.393974 0.000000 0.000000
												CHANNELS 3 Xrotation Yrotation Zrotation
												JOINT LeftHandMiddle3
												{
													OFFSET 10.771950 0.000000 0.000000
													CHANNELS 3 Xrotation Yrotation Zrotation
													End Site
													{
														OFFSET 0.000000 0.000000 0.000000
													}
												}
											}
										}
										JOINT LeftHandRing1
										{
											OFFSET 24.660927 0.144547 -6.225808
											CHANNELS 3 Xrotation Yrotation Zrotation
											JOINT LeftHandRing2
											{
												OFFSET 9.393799 0.000000 0.000000
												CHANNELS 3 Xrotation Yrotation Zrotation
												JOINT LeftHandRing3
												{
													OFFSET 9.928497 0.000000 0.000000
													CHANNELS 3 Xrotation Yrotation Zrotation
													End Site
													{
														OFFSET 0.000000 0.000000 0.000000
													}
												}
											}
										}
										JOINT LeftHandPinky1
										{
											OFFSET 23.655350 0.125290 -12.815412
											CHANNELS 3 Xrotation Yrotation Zrotation
											JOINT LeftHandPinky2
											{
												OFFSET 8.425102 0.000000 0.000000
												CHANNELS 3 Xrotation Yrotation Zrotation
												JOINT LeftHandPinky3
												{
													OFFSET 8.147003 0.000000 0.000000
													CHANNELS 3 Xrotation Yrotation Zrotation
													End Site
													{
														OFFSET 0.000000 0.000000 0.000000
													}
												}
											}
										}
									}
								}
							}
						}
					}
					JOINT RightShoulder
					{
						OFFSET -3.249400 8.794197 -1.372250
						CHANNELS 3 Xrotation Yrotation Zrotation
						JOINT RightShoulder_split
						{
							OFFSET -3.249400 8.794197 -1.372250
							CHANNELS 3 Xrotation Yrotation Zrotation
							JOINT RightArm
							{
								OFFSET -11.953299 -2.279007 -0.146200
								CHANNELS 3 Xrotation Yrotation Zrotation
								JOINT RightForeArm
								{
									OFFSET -18.448900 0.000000 0.000000
									CHANNELS 3 Xrotation Yrotation Zrotation
									JOINT RightHand
									{
										OFFSET -29.527802 0.000000 0.000000
										CHANNELS 3 Xrotation Yrotation Zrotation
										JOINT RightHandThumb1
										{
											OFFSET -10.739754 -2.369614 9.225399
											CHANNELS 3 Xrotation Yrotation Zrotation
											JOINT RightHandThumb2
											{
												OFFSET -4.926170 -2.844131 2.844125
												CHANNELS 3 Xrotation Yrotation Zrotation
												JOINT RightHandThumb3
												{
													OFFSET -4.614891 -2.664413 2.664409
													CHANNELS 3 Xrotation Yrotation Zrotation
													JOINT RightHandThumb4
													{
														OFFSET -4.432465 -2.559082 2.559083
														CHANNELS 3 Xrotation Yrotation Zrotation
														End Site
														{
															OFFSET 0.000000 0.000000 0.000000
														}
													}
												}
											}
										}
										JOINT RightHandIndex1
										{
											OFFSET -26.467674 0.187653 6.405298
											CHANNELS 3 Xrotation Yrotation Zrotation
											JOINT RightHandIndex2
											{
												OFFSET -8.792900 0.000000 0.000000
												CHANNELS 3 Xrotation Yrotation Zrotation
												JOINT RightHandIndex3
												{
													OFFSET -10.075203 0.000000 0.000000
													CHANNELS 3 Xrotation Yrotation Zrotation
													End Site
													{
														OFFSET 0.000000 0.000000 0.000000
													}
												}
											}
										}
										JOINT RightHandMiddle1
										{
											OFFSET -25.764404 0.000000 0.000000
											CHANNELS 3 Xrotation Yrotation Zrotation
											JOINT RightHandMiddle2
											{
												OFFSET -9.393974 0.000000 0.000000
												CHANNELS 3 Xrotation Yrotation Zrotation
												JOINT RightHandMiddle3
												{
													OFFSET -10.771950 0.000000 0.000000
													CHANNELS 3 Xrotation Yrotation Zrotation
													End Site
													{
														OFFSET 0.000000 0.000000 0.000000
													}
												}
											}
										}
										JOINT RightHandRing1
										{
											OFFSET -24.660927 0.144547 -6.225808
											CHANNELS 3 Xrotation Yrotation Zrotation
											JOINT RightHandRing2
											{
												OFFSET -9.393799 0.000000 0.000000
												CHANNELS 3 Xrotation Yrotation Zrotation
												JOINT RightHandRing3
												{
													OFFSET -9.928497 0.000000 0.000000
													CHANNELS 3 Xrotation Yrotation Zrotation
													End Site
													{
														OFFSET 0.000000 0.000000 0.000000
													}
												}
											}
										}
										JOINT RightHandPinky1
										{
											OFFSET -23.655350 0.125290 -12.815412
											CHANNELS 3 Xrotation Yrotation Zrotation
											JOINT RightHandPinky2
											{
												OFFSET -8.425102 0.000000 0.000000
												CHANNELS 3 Xrotation Yrotation Zrotation
												JOINT RightHandPinky3
												{
													OFFSET -8.147003 0.000000 0.000000
													CHANNELS 3 Xrotation Yrotation Zrotation
													End Site
													{
														OFFSET 0.000000 0.000000 0.000000
													}
												}
											}
										}
									}
								}
							}
						}
					}
				}
			}
		}
	}
	JOINT LeftUpLeg
	{
		OFFSET 11.394100 -6.187798 -0.413800
		CHANNELS 3 Xrotation Yrotation Zrotation
		JOINT LeftLeg
		{
			OFFSET 0.430247 -32.302673 3.732800
			CHANNELS 3 Xrotation Yrotation Zrotation
			JOINT LeftFoot
			{
				OFFSET -0.430247 -48.264931 -6.423300
				CHANNELS 3 Xrotation Yrotation Zrotation
				JOINT LeftToeBase
				{
					OFFSET 4.230900 -16.068199 23.438400
					CHANNELS 3 Xrotation Yrotation Zrotation
					JOINT LeftToe_End
					{
						OFFSET 4.510700 0.695400 19.974600
						CHANNELS 3 Xrotation Yrotation Zrotation
						End Site
						{
							OFFSET 0.000000 0.000000 0.000000
						}
					}
				}
			}
		}
	}
	JOINT RightUpLeg
	{
		OFFSET -11.333700 -6.187798 -0.413800
		CHANNELS 3 Xrotation Yrotation Zrotation
		JOINT RightLeg
		{
			OFFSET -0.430392 -32.302628 3.733000
			CHANNELS 3 Xrotation Yrotation Zrotation
			JOINT RightFoot
			{
				OFFSET 0.430392 -48.264973 -6.423500
				CHANNELS 3 Xrotation Yrotation Zrotation
				JOINT RightToeBase
				{
					OFFSET -4.230900 -16.068199 23.438400
					CHANNELS 3 Xrotation Yrotation Zrotation
					JOINT RightToe_End
					{
						OFFSET -4.510700 0.695400 19.974600
						CHANNELS 3 Xrotation Yrotation Zrotation
						End Site
						{
							OFFSET 0.000000 0.000000 0.000000
						}
					}
				}
			}
		}
	}
}
MOTION
Frames: 4
Frame Time: 0.016667
6.939932 95.972710 -6.457888 7.533178 -32.855846 -20.084578 20.012195 -5.292295 14.660152 14.882794 -0.853704 11.261198 0.000000 0.000000 0.000000 15.131227 -0.648042 9.675228 -9.983882 -2.860073 5.479618 44.315227 -21.168851 34.786392 -0.000000 0.000000 -0.000000 1.428811 -22.224471 -11.600543 0.000000 0.000000 0.000000 -29.377101 -24.713921 -57.022838 0.000011 -6.918361 -0.000000 -21.663620 1.158958 -14.566427 18.491272 -0.461415 10.916054 1.284050 32.757615 -3.088964 2.117132 9.311161 -0.358617 0.000001 -0.000002 0.000000 0.339562 4.671350 -7.844275 0.387034 2.823580 -20.566227 0.000001 0.000001 -0.000003 0.912585 8.769264 -15.831754 0.919072 3.991131 -33.400411 -0.000001 -0.000001 0.000000 2.555819 11.673028 -26.909216 1.710650 3.886780 -40.215457 -0.000000 -0.000000 -0.000000 5.576076 16.029173 -36.940631 1.378690 4.077640 -45.645628 0.000000 0.000000 -0.000000 2.724549 8.294338 13.453016 0.000000 0.000000 0.000000 6.429270 49.813826 20.457868 -0.000000 22.722602 -0.000000 -0.688166 13.861793 2.493890 18.491284 0.461413 -10.916074 1.284042 -32.757601 3.088935 2.008705 -8.430479 1.114721 0.000002 0.000001 0.000001 0.339564 -4.671355 7.844277 0.387032 -2.823579 20.566255 -0.000001 -0.000000 -0.000001 0.912586 -8.769264 15.831752 0.919072 -3.991134 33.400428 0.000003 -0.000001 -0.000003 2.555816 -11.673034 26.909187 1.710652 -3.886781 40.215467 0.000000 -0.000001 -0.000000 5.576073 -16.029177 36.940624 1.378688 -4.077637 45.645628 0.000000 -0.000001 -0.000001 -40.220259 -11.808761 25.741834 48.501388 5.644596 8.632802 -5.664924 29.043925 -11.787760 -0.315152 0.000004 0.000004 0.000000 -0.000000 -0.000000 -27.395358 3.350094 25.487158 18.017235 -0.022568 7.470809 3.117534 12.862764 -7.297952 -4.013779 0.000003 -0.000002 -0.000000 -0.000001 -0.000000 
6.866642 95.969963 -6.460018 7.540092 -32.726592 -20.063489 19.939072 -5.329107 14.728763 14.845377 -0.865577 11.290750 0.000000 0.000000 0.000000 15.093012 -0.659112 9.704707 -9.957540 -2.861792 5.471384 44.377856 -21.263554 34.788926 -0.000001 -0.000000 0.000000 1.421064 -22.263312 -11.624745 0.000000 0.000000 0.000000 -29.239500 -24.946661 -57.154016 -0.000000 -6.919571 -0.000000 -22.087449 0.509896 -14.614098 18.491272 -0.461416 10.916056 1.284049 32.757615 -3.088964 2.117132 9.311151 -0.358617 0.000000 0.000002 -0.000000 0.339565 4.671352 -7.844278 0.387035 2.823579 -20.566226 -0.000000 0.000002 -0.000005 0.912589 8.769265 -15.831750 0.919072 3.991132 -33.400414 -0.000000 0.000000 -0.000001 2.555823 11.673031 -26.909214 1.710650 3.886782 -40.215457 -0.000002 -0.000001 0.000001 5.576079 16.029173 -36.940638 1.378686 4.077643 -45.645621 0.000002 0.000000 0.000000 2.805138 8.300642 13.088448 0.000000 0.000000 0.000000 6.473871 49.476326 20.586793 0.000001 23.126215 -0.000003 -0.900186 13.002781 2.887932 18.491277 0.461414 -10.916077 1.284038 -32.757601 3.088937 2.008702 -8.430479 1.114721 -0.000002 -0.000000 0.000001 0.339564 -4.671355 7.844278 0.387031 -2.823579 20.566251 -0.000000 -0.000001 -0.000000 0.912584 -8.769262 15.831750 0.919073 -3.991134 33.400431 0.000000 -0.000000 -0.000003 2.555815 -11.673032 26.909187 1.710653 -3.886780 40.215467 -0.000000 -0.000001 0.000000 5.576073 -16.029177 36.940627 1.378689 -4.077637 45.645632 -0.000000 0.000000 0.000001 -40.253023 -11.760430 25.782907 48.472142 5.619473 8.632318 -5.670088 28.866080 -11.796321 -0.314755 0.000006 -0.000005 0.000000 0.000000 0.000000 -27.399177 3.338192 25.512257 18.061274 -0.004632 7.453049 3.064823 12.719358 -7.331744 -4.015247 -0.000000 -0.000001 -0.000000 -0.000000 -0.000000 
6.791292 95.970520 -6.459509 7.543964 -32.577400 -20.037152 19.868450 -5.365041 14.797875 14.807942 -0.877124 11.320872 0.000000 0.000000 0.000000 15.054850 -0.669731 9.734745 -9.932000 -2.864899 5.463869 44.440185 -21.362270 34.797601 -0.000000 -0.000001 0.000000 1.413651 -22.300055 -11.647846 0.000000 0.000000 0.000000 -29.076740 -25.170188 -57.285340 0.000003 -6.920582 0.000001 -22.500219 -0.128281 -14.674296 18.491270 -0.461415 10.916054 1.284050 32.757611 -3.088965 2.117132 9.311155 -0.358618 0.000001 0.000001 -0.000000 0.339565 4.671352 -7.844278 0.387034 2.823579 -20.566224 0.000000 -0.000000 0.000000 0.912585 8.769264 -15.831754 0.919075 3.991133 -33.400417 -0.000001 0.000000 -0.000001 2.555820 11.673032 -26.909216 1.710652 3.886781 -40.215457 -0.000002 -0.000000 -0.000000 5.576074 16.029175 -36.940634 1.378686 4.077641 -45.645621 0.000001 -0.000000 0.000000 2.887477 8.303044 12.724781 0.000000 0.000000 0.000000 6.502557 49.145055 20.735548 0.000001 23.528021 -0.000002 -1.075806 12.131587 3.207531 18.491276 0.461413 -10.916076 1.284040 -32.757604 3.088936 2.008701 -8.430478 1.114720 -0.000002 0.000001 0.000000 0.339564 -4.671355 7.844279 0.387031 -2.823579 20.566255 -0.000002 -0.000000 -0.000000 0.912584 -8.769264 15.831755 0.919073 -3.991133 33.400431 0.000000 -0.000001 -0.000001 2.555816 -11.673034 26.909188 1.710653 -3.886781 40.215471 -0.000001 0.000001 0.000000 5.576075 -16.029177 36.940627 1.378689 -4.077636 45.645632 -0.000000 -0.000000 -0.000001 -40.272100 -11.718489 25.809063 48.427513 5.622148 8.632220 -5.671041 28.657503 -11.808702 -0.314899 -0.000003 0.000000 -0.000000 0.000001 0.000000 -27.394622 3.329559 25.534459 18.102330 0.016807 7.425889 3.005860 12.555122 -7.361086 -4.016482 0.000002 -0.000002 -0.000000 0.000000 0.000000 
6.714239 95.974678 -6.455933 7.544186 -32.409398 -20.005815 19.799735 -5.399251 14.867660 14.770576 -0.887985 11.351580 0.000000 0.000000 0.000000 15.016755 -0.679464 9.765326 -9.907232 -2.869373 5.456883 44.501131 -21.464004 34.810609 -0.000000 -0.000000 0.000000 1.406855 -22.333677 -11.669304 0.000000 0.000000 0.000000 -28.888828 -25.384562 -57.416319 -0.000017 -6.922042 0.000001 -22.902251 -0.751415 -14.745280 18.491272 -0.461415 10.916054 1.284050 32.757611 -3.088963 2.117131 9.311158 -0.358618 0.000000 0.000001 -0.000000 0.339562 4.671352 -7.844277 0.387032 2.823579 -20.566229 -0.000000 0.000000 0.000001 0.912585 8.769262 -15.831745 0.919075 3.991134 -33.400414 -0.000001 0.000000 -0.000002 2.555819 11.673031 -26.909216 1.710651 3.886782 -40.215461 0.000000 -0.000000 0.000000 5.576074 16.029173 -36.940634 1.378685 4.077642 -45.645628 0.000003 -0.000000 -0.000000 2.971374 8.302337 12.360873 0.000000 0.000000 0.000000 6.513144 48.819938 20.906745 0.000003 23.926617 -0.000003 -1.214042 11.254096 3.455846 18.491284 0.461412 -10.916075 1.284034 -32.757598 3.088936 2.008701 -8.430477 1.114720 -0.000001 -0.000002 0.000000 0.339566 -4.671357 7.844277 0.387033 -2.823579 20.566256 0.000001 -0.000000 -0.000001 0.912585 -8.769266 15.831754 0.919074 -3.991133 33.400434 0.000002 -0.000001 -0.000005 2.555817 -11.673034 26.909183 1.710655 -3.886781 40.215464 -0.000001 -0.000000 -0.000002 5.576074 -16.029178 36.940627 1.378689 -4.077637 45.645635 0.000000 0.000000 -0.000001 -40.274412 -11.683985 25.819032 48.366963 5.647092 8.632357 -5.666443 28.431497 -11.825769 -0.314775 0.000007 -0.000003 -0.000000 -0.000000 0.000000 -27.378489 3.324095 25.551545 18.137714 0.037209 7.391465 2.942000 12.377574 -7.386838 -4.017430 0.000009 0.000002 -0.000000 -0.000000 -0.000000 
